<mxfile host="Electron" agent="Mozilla/5.0 (Windows NT 10.0; Win64; x64) AppleWebKit/537.36 (KHTML, like Gecko) draw.io/24.7.17 Chrome/128.0.6613.36 Electron/32.0.1 Safari/537.36" version="24.7.17">
  <diagram name="Page-1" id="74e2e168-ea6b-b213-b513-2b3c1d86103e">
    <mxGraphModel dx="1615" dy="955" grid="1" gridSize="10" guides="1" tooltips="1" connect="1" arrows="1" fold="1" page="1" pageScale="1" pageWidth="1100" pageHeight="850" background="none" math="0" shadow="0">
      <root>
        <mxCell id="0" />
        <mxCell id="1" parent="0" />
        <mxCell id="77e6c97f196da883-1" value="Pool" style="swimlane;html=1;childLayout=stackLayout;startSize=20;rounded=0;shadow=0;labelBackgroundColor=none;strokeWidth=1;fontFamily=Verdana;fontSize=8;align=center;" parent="1" vertex="1">
          <mxGeometry x="70" y="40" width="640" height="870" as="geometry" />
        </mxCell>
        <mxCell id="77e6c97f196da883-2" value="&lt;div&gt;Client&lt;/div&gt;" style="swimlane;html=1;startSize=20;dashed=1;" parent="77e6c97f196da883-1" vertex="1">
          <mxGeometry y="20" width="160" height="850" as="geometry" />
        </mxCell>
        <mxCell id="YgUDP2QyZNIKP37zhf87-15" style="edgeStyle=orthogonalEdgeStyle;rounded=0;orthogonalLoop=1;jettySize=auto;html=1;exitX=0.5;exitY=1;exitDx=0;exitDy=0;entryX=0.5;entryY=0;entryDx=0;entryDy=0;" edge="1" parent="77e6c97f196da883-2" source="YgUDP2QyZNIKP37zhf87-2" target="YgUDP2QyZNIKP37zhf87-3">
          <mxGeometry relative="1" as="geometry" />
        </mxCell>
        <mxCell id="YgUDP2QyZNIKP37zhf87-2" value="&lt;span style=&quot;font-family: Arial, sans-serif; text-align: start; text-wrap: nowrap;&quot;&gt;Start&lt;/span&gt;" style="ellipse;whiteSpace=wrap;html=1;" vertex="1" parent="77e6c97f196da883-2">
          <mxGeometry x="20" y="40" width="120" height="80" as="geometry" />
        </mxCell>
        <mxCell id="YgUDP2QyZNIKP37zhf87-3" value="Browse Catalog Place Books in Cart" style="rounded=1;whiteSpace=wrap;html=1;" vertex="1" parent="77e6c97f196da883-2">
          <mxGeometry x="20" y="140" width="120" height="60" as="geometry" />
        </mxCell>
        <mxCell id="YgUDP2QyZNIKP37zhf87-26" value="Pay?" style="rhombus;whiteSpace=wrap;html=1;" vertex="1" parent="77e6c97f196da883-2">
          <mxGeometry x="40" y="365" width="80" height="80" as="geometry" />
        </mxCell>
        <mxCell id="YgUDP2QyZNIKP37zhf87-42" value="&lt;span style=&quot;font-family: Arial; font-size: 14.6667px; text-align: left; background-color: rgb(255, 255, 255);&quot;&gt;picks up the order&lt;/span&gt;" style="rounded=1;whiteSpace=wrap;html=1;" vertex="1" parent="77e6c97f196da883-2">
          <mxGeometry x="20" y="470" width="120" height="60" as="geometry" />
        </mxCell>
        <mxCell id="77e6c97f196da883-3" value="System&lt;span style=&quot;white-space: pre;&quot;&gt;&#x9;&lt;/span&gt;" style="swimlane;html=1;startSize=20;dashed=1;" parent="77e6c97f196da883-1" vertex="1">
          <mxGeometry x="160" y="20" width="160" height="850" as="geometry" />
        </mxCell>
        <mxCell id="YgUDP2QyZNIKP37zhf87-17" style="edgeStyle=orthogonalEdgeStyle;rounded=0;orthogonalLoop=1;jettySize=auto;html=1;exitX=0.5;exitY=1;exitDx=0;exitDy=0;entryX=0.5;entryY=0;entryDx=0;entryDy=0;" edge="1" parent="77e6c97f196da883-3" source="YgUDP2QyZNIKP37zhf87-4" target="YgUDP2QyZNIKP37zhf87-5">
          <mxGeometry relative="1" as="geometry" />
        </mxCell>
        <mxCell id="YgUDP2QyZNIKP37zhf87-4" value="Register Order" style="rounded=1;whiteSpace=wrap;html=1;" vertex="1" parent="77e6c97f196da883-3">
          <mxGeometry x="20" y="140" width="120" height="60" as="geometry" />
        </mxCell>
        <mxCell id="YgUDP2QyZNIKP37zhf87-18" style="edgeStyle=orthogonalEdgeStyle;rounded=0;orthogonalLoop=1;jettySize=auto;html=1;exitX=0;exitY=0.5;exitDx=0;exitDy=0;" edge="1" parent="77e6c97f196da883-3" source="YgUDP2QyZNIKP37zhf87-5" target="YgUDP2QyZNIKP37zhf87-14">
          <mxGeometry relative="1" as="geometry">
            <Array as="points">
              <mxPoint x="10" y="260" />
              <mxPoint x="10" y="590" />
              <mxPoint x="80" y="590" />
            </Array>
          </mxGeometry>
        </mxCell>
        <mxCell id="YgUDP2QyZNIKP37zhf87-20" value="Yes" style="edgeLabel;html=1;align=center;verticalAlign=middle;resizable=0;points=[];" vertex="1" connectable="0" parent="YgUDP2QyZNIKP37zhf87-18">
          <mxGeometry x="-0.4597" y="1" relative="1" as="geometry">
            <mxPoint x="9" y="-92" as="offset" />
          </mxGeometry>
        </mxCell>
        <mxCell id="YgUDP2QyZNIKP37zhf87-5" value="overtime?" style="rhombus;whiteSpace=wrap;html=1;" vertex="1" parent="77e6c97f196da883-3">
          <mxGeometry x="40" y="220" width="80" height="80" as="geometry" />
        </mxCell>
        <mxCell id="YgUDP2QyZNIKP37zhf87-13" value="End" style="ellipse;whiteSpace=wrap;html=1;" vertex="1" parent="77e6c97f196da883-3">
          <mxGeometry x="20" y="700" width="120" height="80" as="geometry" />
        </mxCell>
        <mxCell id="YgUDP2QyZNIKP37zhf87-19" style="edgeStyle=orthogonalEdgeStyle;rounded=0;orthogonalLoop=1;jettySize=auto;html=1;exitX=0.5;exitY=1;exitDx=0;exitDy=0;" edge="1" parent="77e6c97f196da883-3" source="YgUDP2QyZNIKP37zhf87-14" target="YgUDP2QyZNIKP37zhf87-13">
          <mxGeometry relative="1" as="geometry" />
        </mxCell>
        <mxCell id="YgUDP2QyZNIKP37zhf87-14" value="Reject" style="rounded=1;whiteSpace=wrap;html=1;" vertex="1" parent="77e6c97f196da883-3">
          <mxGeometry x="20" y="610" width="120" height="60" as="geometry" />
        </mxCell>
        <mxCell id="YgUDP2QyZNIKP37zhf87-31" value="Order" style="rounded=1;whiteSpace=wrap;html=1;" vertex="1" parent="77e6c97f196da883-3">
          <mxGeometry x="20" y="375" width="120" height="60" as="geometry" />
        </mxCell>
        <mxCell id="77e6c97f196da883-4" value="OrderPacker" style="swimlane;html=1;startSize=20;dashed=1;" parent="77e6c97f196da883-1" vertex="1">
          <mxGeometry x="320" y="20" width="160" height="850" as="geometry" />
        </mxCell>
        <mxCell id="YgUDP2QyZNIKP37zhf87-8" value="Availability?" style="rhombus;whiteSpace=wrap;html=1;" vertex="1" parent="77e6c97f196da883-4">
          <mxGeometry x="40" y="220" width="80" height="80" as="geometry" />
        </mxCell>
        <mxCell id="YgUDP2QyZNIKP37zhf87-35" value="Pack&lt;div&gt;&lt;span style=&quot;font-family: Arial, sans-serif; text-align: start; text-wrap: nowrap;&quot;&gt;Collect&lt;/span&gt;&lt;br&gt;&lt;/div&gt;" style="rounded=1;whiteSpace=wrap;html=1;" vertex="1" parent="77e6c97f196da883-4">
          <mxGeometry x="20" y="375" width="120" height="60" as="geometry" />
        </mxCell>
        <mxCell id="77e6c97f196da883-5" value="TransportService" style="swimlane;html=1;startSize=20;dashed=1;" parent="77e6c97f196da883-1" vertex="1">
          <mxGeometry x="480" y="20" width="160" height="850" as="geometry" />
        </mxCell>
        <mxCell id="YgUDP2QyZNIKP37zhf87-41" style="edgeStyle=orthogonalEdgeStyle;rounded=0;orthogonalLoop=1;jettySize=auto;html=1;exitX=0.5;exitY=1;exitDx=0;exitDy=0;entryX=0.5;entryY=0;entryDx=0;entryDy=0;" edge="1" parent="77e6c97f196da883-5" source="YgUDP2QyZNIKP37zhf87-38" target="YgUDP2QyZNIKP37zhf87-40">
          <mxGeometry relative="1" as="geometry" />
        </mxCell>
        <mxCell id="YgUDP2QyZNIKP37zhf87-38" value="&lt;span style=&quot;font-family: Arial; font-size: 14.6667px; text-align: left; background-color: rgb(255, 255, 255);&quot;&gt;&amp;nbsp;sorting center&lt;/span&gt;" style="rounded=1;whiteSpace=wrap;html=1;" vertex="1" parent="77e6c97f196da883-5">
          <mxGeometry x="20" y="375" width="120" height="60" as="geometry" />
        </mxCell>
        <mxCell id="YgUDP2QyZNIKP37zhf87-40" value="&lt;span style=&quot;font-family: Arial; font-size: 14.6667px; text-align: left; background-color: rgb(255, 255, 255);&quot;&gt;delivers the order&lt;/span&gt;" style="rounded=1;whiteSpace=wrap;html=1;" vertex="1" parent="77e6c97f196da883-5">
          <mxGeometry x="20" y="470" width="120" height="60" as="geometry" />
        </mxCell>
        <mxCell id="YgUDP2QyZNIKP37zhf87-11" style="edgeStyle=orthogonalEdgeStyle;rounded=0;orthogonalLoop=1;jettySize=auto;html=1;exitX=1;exitY=0.5;exitDx=0;exitDy=0;entryX=0;entryY=0.5;entryDx=0;entryDy=0;" edge="1" parent="77e6c97f196da883-1" source="YgUDP2QyZNIKP37zhf87-5" target="YgUDP2QyZNIKP37zhf87-8">
          <mxGeometry relative="1" as="geometry" />
        </mxCell>
        <mxCell id="YgUDP2QyZNIKP37zhf87-12" value="No" style="edgeLabel;html=1;align=center;verticalAlign=middle;resizable=0;points=[];" vertex="1" connectable="0" parent="YgUDP2QyZNIKP37zhf87-11">
          <mxGeometry x="-0.1293" relative="1" as="geometry">
            <mxPoint x="-25" as="offset" />
          </mxGeometry>
        </mxCell>
        <mxCell id="YgUDP2QyZNIKP37zhf87-16" style="edgeStyle=orthogonalEdgeStyle;rounded=0;orthogonalLoop=1;jettySize=auto;html=1;exitX=1;exitY=0.5;exitDx=0;exitDy=0;entryX=0;entryY=0.5;entryDx=0;entryDy=0;" edge="1" parent="77e6c97f196da883-1" source="YgUDP2QyZNIKP37zhf87-3" target="YgUDP2QyZNIKP37zhf87-4">
          <mxGeometry relative="1" as="geometry" />
        </mxCell>
        <mxCell id="YgUDP2QyZNIKP37zhf87-21" style="edgeStyle=orthogonalEdgeStyle;rounded=0;orthogonalLoop=1;jettySize=auto;html=1;exitX=1;exitY=0.5;exitDx=0;exitDy=0;entryX=0.5;entryY=0;entryDx=0;entryDy=0;" edge="1" parent="77e6c97f196da883-1" source="YgUDP2QyZNIKP37zhf87-8" target="YgUDP2QyZNIKP37zhf87-14">
          <mxGeometry relative="1" as="geometry">
            <mxPoint x="240" y="510" as="targetPoint" />
            <Array as="points">
              <mxPoint x="470" y="280" />
              <mxPoint x="470" y="610" />
              <mxPoint x="240" y="610" />
            </Array>
          </mxGeometry>
        </mxCell>
        <mxCell id="YgUDP2QyZNIKP37zhf87-22" value="No" style="edgeLabel;html=1;align=center;verticalAlign=middle;resizable=0;points=[];" vertex="1" connectable="0" parent="YgUDP2QyZNIKP37zhf87-21">
          <mxGeometry x="0.2771" relative="1" as="geometry">
            <mxPoint x="9" y="-330" as="offset" />
          </mxGeometry>
        </mxCell>
        <mxCell id="YgUDP2QyZNIKP37zhf87-27" style="edgeStyle=orthogonalEdgeStyle;rounded=0;orthogonalLoop=1;jettySize=auto;html=1;exitX=0.5;exitY=1;exitDx=0;exitDy=0;" edge="1" parent="77e6c97f196da883-1" source="YgUDP2QyZNIKP37zhf87-8" target="YgUDP2QyZNIKP37zhf87-26">
          <mxGeometry relative="1" as="geometry">
            <Array as="points">
              <mxPoint x="400" y="352" />
              <mxPoint x="80" y="352" />
            </Array>
          </mxGeometry>
        </mxCell>
        <mxCell id="YgUDP2QyZNIKP37zhf87-28" value="Yes" style="edgeLabel;html=1;align=center;verticalAlign=middle;resizable=0;points=[];" vertex="1" connectable="0" parent="YgUDP2QyZNIKP37zhf87-27">
          <mxGeometry x="-0.9226" y="-1" relative="1" as="geometry">
            <mxPoint as="offset" />
          </mxGeometry>
        </mxCell>
        <mxCell id="YgUDP2QyZNIKP37zhf87-32" style="edgeStyle=orthogonalEdgeStyle;rounded=0;orthogonalLoop=1;jettySize=auto;html=1;exitX=1;exitY=0.5;exitDx=0;exitDy=0;entryX=0;entryY=0.5;entryDx=0;entryDy=0;" edge="1" parent="77e6c97f196da883-1" source="YgUDP2QyZNIKP37zhf87-26" target="YgUDP2QyZNIKP37zhf87-31">
          <mxGeometry relative="1" as="geometry" />
        </mxCell>
        <mxCell id="YgUDP2QyZNIKP37zhf87-33" value="Yes" style="edgeLabel;html=1;align=center;verticalAlign=middle;resizable=0;points=[];" vertex="1" connectable="0" parent="YgUDP2QyZNIKP37zhf87-32">
          <mxGeometry x="-0.6897" y="2" relative="1" as="geometry">
            <mxPoint x="11" y="2" as="offset" />
          </mxGeometry>
        </mxCell>
        <mxCell id="YgUDP2QyZNIKP37zhf87-36" style="edgeStyle=orthogonalEdgeStyle;rounded=0;orthogonalLoop=1;jettySize=auto;html=1;exitX=1;exitY=0.5;exitDx=0;exitDy=0;entryX=0;entryY=0.5;entryDx=0;entryDy=0;" edge="1" parent="77e6c97f196da883-1" source="YgUDP2QyZNIKP37zhf87-31" target="YgUDP2QyZNIKP37zhf87-35">
          <mxGeometry relative="1" as="geometry" />
        </mxCell>
        <mxCell id="YgUDP2QyZNIKP37zhf87-29" style="edgeStyle=orthogonalEdgeStyle;rounded=0;orthogonalLoop=1;jettySize=auto;html=1;exitX=0;exitY=0.5;exitDx=0;exitDy=0;entryX=0.5;entryY=0;entryDx=0;entryDy=0;" edge="1" parent="77e6c97f196da883-1" source="YgUDP2QyZNIKP37zhf87-26" target="YgUDP2QyZNIKP37zhf87-14">
          <mxGeometry relative="1" as="geometry">
            <mxPoint x="240" y="540" as="targetPoint" />
            <Array as="points">
              <mxPoint x="10" y="425" />
              <mxPoint x="10" y="610" />
              <mxPoint x="240" y="610" />
            </Array>
          </mxGeometry>
        </mxCell>
        <mxCell id="YgUDP2QyZNIKP37zhf87-30" value="No" style="edgeLabel;html=1;align=center;verticalAlign=middle;resizable=0;points=[];" vertex="1" connectable="0" parent="YgUDP2QyZNIKP37zhf87-29">
          <mxGeometry x="-0.9099" y="-1" relative="1" as="geometry">
            <mxPoint x="1" y="1" as="offset" />
          </mxGeometry>
        </mxCell>
        <mxCell id="YgUDP2QyZNIKP37zhf87-39" style="edgeStyle=orthogonalEdgeStyle;rounded=0;orthogonalLoop=1;jettySize=auto;html=1;exitX=1;exitY=0.5;exitDx=0;exitDy=0;entryX=0;entryY=0.5;entryDx=0;entryDy=0;" edge="1" parent="77e6c97f196da883-1" source="YgUDP2QyZNIKP37zhf87-35" target="YgUDP2QyZNIKP37zhf87-38">
          <mxGeometry relative="1" as="geometry" />
        </mxCell>
        <mxCell id="YgUDP2QyZNIKP37zhf87-43" style="edgeStyle=orthogonalEdgeStyle;rounded=0;orthogonalLoop=1;jettySize=auto;html=1;exitX=0;exitY=0.5;exitDx=0;exitDy=0;" edge="1" parent="77e6c97f196da883-1" source="YgUDP2QyZNIKP37zhf87-40" target="YgUDP2QyZNIKP37zhf87-42">
          <mxGeometry relative="1" as="geometry" />
        </mxCell>
        <mxCell id="YgUDP2QyZNIKP37zhf87-44" style="edgeStyle=orthogonalEdgeStyle;rounded=0;orthogonalLoop=1;jettySize=auto;html=1;exitX=0.5;exitY=1;exitDx=0;exitDy=0;entryX=0;entryY=0.5;entryDx=0;entryDy=0;" edge="1" parent="77e6c97f196da883-1" source="YgUDP2QyZNIKP37zhf87-42" target="YgUDP2QyZNIKP37zhf87-13">
          <mxGeometry relative="1" as="geometry" />
        </mxCell>
      </root>
    </mxGraphModel>
  </diagram>
</mxfile>
